# xmcd
#
# Track frame offsets:
#	150
#	22435
#	37513
#	53865
#	80921
#	94637
#	116082
#	129188
#	148187
#	174900
#
# Disc length: 2705 seconds
#
# Revision: 0
# Processed by: cddbd v1.5.2PL0 Copyright (c) Steve Scherf et al.
# Submitted via: audiograbber 1.83.01
#
DISCID=820a8f0a
DTITLE=Mojo Blues - I Gotta Move
DYEAR=1999
DGENRE=Blues
TTITLE0=I Gotta Move
TTITLE1=Thinkin' 'Bout You Baby
TTITLE2=You Are The Boss
TTITLE3=Too Much Beer On My Mind
TTITLE4=Pretty Litta
TTITLE5=I Will Never Fall In Love Again
TTITLE6=Heading Down The Line
TTITLE7=Hog For Ya Baby
TTITLE8=Corner Rock'n'Roll
TTITLE9=Suzie Q
EXTD=
EXTT0=
EXTT1=
EXTT2=
EXTT3=
EXTT4=
EXTT5=
EXTT6=
EXTT7=
EXTT8=
EXTT9=
PLAYORDER=
